<!--<svg xmlns="http://www.w3.org/2000/svg" xmlns:xlink="http://www.w3.org/1999/xlink" version="1.1" id="Capa_1" x="0px" y="0px" width="512px" height="512px" viewBox="0 0 612 612" style="enable-background:new 0 0 612 612;" xml:space="preserve">
<g>
	<g>
		<g>
			<g>
				<g stroke="#000000">
					<path d="M306.331,612c-8.546,0-17.218-0.363-25.778-1.076C112.418,596.896-12.957,448.694,1.071,280.558       C7.493,203.59,42.381,132.496,99.31,80.372C155.915,28.542,229.195,0,305.652,0c8.546,0,17.219,0.361,25.776,1.076       c81.451,6.795,155.378,44.901,208.167,107.298c52.787,62.396,78.115,141.616,71.32,223.063       c-6.422,76.971-41.31,148.063-98.238,200.188C456.072,583.456,382.791,612,306.331,612z M305.652,8.031       c-74.444,0-145.8,27.797-200.921,78.265C49.299,137.05,15.328,206.277,9.074,281.226       C-4.584,444.951,117.5,589.262,281.218,602.921c8.337,0.695,16.786,1.049,25.11,1.049c74.449,0,145.803-27.796,200.925-78.268       c55.433-50.755,89.406-119.984,95.658-194.933c6.617-79.311-18.048-156.45-69.449-217.209       c-51.399-60.758-123.39-97.863-202.7-104.482C322.425,8.384,313.977,8.031,305.652,8.031z" fill="#000000"/>
				</g>
			</g>
			<g>
				<path d="M305.995,463.249l-146.41-167.602h84.47V150.838h122.069v144.809h86.278L305.995,463.249z M177.264,303.678      l128.731,147.365l128.73-147.365h-76.631V158.869H252.086v144.809H177.264z" fill="#000000"/>
			</g>
		</g>
	</g>
</g>
<g>
</g>
<g>
</g>
<g>
</g>
<g>
</g>
<g>
</g>
<g>
</g>
<g>
</g>
<g>
</g>
<g>
</g>
<g>
</g>
<g>
</g>
<g>
</g>
<g>
</g>
<g>
</g>
<g>
</g>
</svg>-->
<!--<svg version="1.0" xmlns="http://www.w3.org/2000/svg" xmlns:xlink="http://www.w3.org/1999/xlink" x="0px" y="0px" viewBox="0 0 48 48" enable-background="new 0 0 48 48" xml:space="preserve">
<circle fill="#B3E5FC" cx="24" cy="30" r="15"></circle>
<g>
	<polygon fill="#1565C0" points="24,38.7 15,28 33,28 	"></polygon>
	<rect x="21" y="5" fill="#1565C0" width="6" height="26"></rect>
</g>
</svg>-->
<svg version="1.0" xmlns="http://www.w3.org/2000/svg" xmlns:xlink="http://www.w3.org/1999/xlink" x="0px" y="0px" viewBox="0 0 48 48" enable-background="new 0 0 48 48" xml:space="preserve">
<g>
	<polygon fill="#1565C0" points="24,37.1 13,24 35,24 	"></polygon>
	<rect x="20" y="4" fill="#1565C0" width="8" height="4"></rect>
	<rect x="20" y="10" fill="#1565C0" width="8" height="4"></rect>
	<rect x="20" y="16" fill="#1565C0" width="8" height="11"></rect>
	<rect x="6" y="40" fill="#1565C0" width="36" height="4"></rect>
</g>
</svg>